 http://www.torrentday.com - Your Key To The Scene.

 
http://www.torrentday.com :  Clean RAR Scene Releases!


Enjoy =)

...................................NFO:....................................

.SPRiNTER proudly presents...



A.Dangerous.Man.2009.DVDRip.XviD-SPRiNTER 
http://www.imdb.com/title/tt1360767/
Subtitles: English, Espanol, Francais

Date: 2010.02


Director: Keoni Waxman
Genre: Action | Thriller
Plot: After serving 6 years for a crime he didn't commit, Shane Daniels is released from jail with an apology from the State of Arizona. Within hours of his freedom, he unluckily bears witness to a cop killing by Chinese mafia who have a kidnapped girl and a bag of drugmoney. In this action packed thrill ride, Shane agreed to help the girl to get her uncle back to safety. To to that he gets some help from Russian mafia, whos boss owns him a favor for saving his son from the Chinese cop killing action mentioned above.

Cast
 
 Steven Seagal ...  Shane Daniels 
 Marlaina Mah ...  Tia 
 Vitaly Kravchenko ...  Vlad 
 Terry Chen   
 Jesse Hutch ...  Sergey 
 Byron Lawson ...  Mao 
 Jerry Wasserman ...  Sgt. Ritchie 
 Shawn C. Orr ...  Sanchez 
 Mike Dopud ...  Clark 
 Vincent Cheng ...  Uncle Kuan 
 Dan Rizzuto ...  Scar 
 Fraser Aitcheson ...  Prison Guard 
 Aidan Dee ...  Shane's Wife 
 Clay Virtue ...  Mugger 
 Daryl Shuttleworth ...  Detective 


Proper notes:

LUMiX release is over-cropped.
Samples of both releases included, also see tinypic.

We also tagged our rls with the correct year and included subs.

Enjoy!

Format                           : AVI
Format/Info                      : Audio Video Interleave
File size                        : 702 MiB
Duration                         : 1h 34mn
Overall bit rate                 : 1 041 Kbps
Writing application              : Nandub v1.0rc2
Writing library                  : Nandub build 1852/release

Video
ID                               : 0
Format                           : MPEG-4 Visual
Format profile                   : AdvancedSimple@L5
Format settings, BVOP            : Yes
Format settings, QPel            : No
Format settings, GMC             : No warppoints
Format settings, Matrix          : Default (H.263)
Codec ID                         : XVID
Codec ID/Hint                    : XviD
Duration                         : 1h 34mn
Bit rate                         : 899 Kbps
Width                            : 592 pixels
Height                           : 320 pixels
Display aspect ratio             : 1.850
Frame rate                       : 23.976 fps
Resolution                       : 24 bits
Colorimetry                      : 4:2:0
Scan type                        : Progressive
Bits/(Pixel*Frame)               : 0.198
Stream size                      : 606 MiB (86%)
Writing library                  : XviD 1.2.1 (UTC 2008-12-04)

Audio
ID                               : 1
Format                           : MPEG Audio
Format version                   : Version 1
Format profile                   : Layer 3
Format_Settings_Mode             : Joint stereo / MS Stereo
Codec ID                         : 55
Codec ID/Hint                    : MP3
Duration                         : 1h 34mn
Bit rate mode                    : Variable
Bit rate                         : 129 Kbps
Minimum bit rate                 : 32.0 Kbps
Channel(s)                       : 2 channels
Sampling rate                    : 48.0 KHz
Resolution                       : 16 bits
Video delay                      : 3s 384ms
Stream size                      : 87.3 MiB (12%)
Alignment                        : Split accross interleaves
Interleave, duration             : 24 ms (0.58 video frame)
Interleave, preload duration     : 1426 ms
Writing library                  : LAME3.95 
Encoding settings                : -m j -V 4 -q 2 -lowpass 18 --vbr-old -b 32